<?xml version="1.0" standalone="no"?>
<!DOCTYPE svg PUBLIC "-//W3C//DTD SVG 20010904//EN"
 "http://www.w3.org/TR/2001/REC-SVG-20010904/DTD/svg10.dtd">
<svg version="1.0" xmlns="http://www.w3.org/2000/svg"
 width="2048.000000pt" height="2048.000000pt" viewBox="0 0 2048.000000 2048.000000"
 preserveAspectRatio="xMidYMid meet">

<g transform="translate(0.000000,2048.000000) scale(0.100000,-0.100000)"
fill="#000000" stroke="none">
<path d="M10180 15848 c-275 -39 -494 -227 -587 -503 -25 -73 -27 -94 -27
-230 0 -135 3 -158 26 -227 41 -122 92 -204 183 -293 90 -88 195 -151 303
-181 l62 -17 0 -81 c0 -45 1 -738 3 -1541 2 -1430 2 -1461 22 -1489 22 -33 70
-56 118 -56 38 0 90 31 121 73 l21 28 3 1533 2 1533 63 17 c252 70 444 273
507 536 56 237 -18 512 -183 682 -161 164 -410 249 -637 216z m239 -297 c121
-38 220 -123 272 -236 131 -279 -31 -593 -334 -645 -180 -32 -390 77 -472 243
-103 209 -49 437 136 573 109 80 267 106 398 65z"/>
<path d="M11583 14511 c-163 -40 -307 -149 -386 -292 -100 -179 -103 -442 -9
-598 79 -131 180 -219 305 -266 l62 -23 2 -268 1 -269 -61 -54 c-34 -30 -238
-228 -454 -440 -404 -398 -423 -420 -423 -497 0 -86 52 -134 145 -134 50 0 70
15 210 155 39 38 243 237 454 440 211 204 392 381 402 394 18 22 19 45 19 345
l0 321 66 19 c181 52 358 248 399 444 45 209 -15 414 -164 563 -150 150 -364
210 -568 160z m274 -253 c68 -25 157 -108 191 -178 29 -61 42 -153 31 -219
-19 -118 -102 -225 -217 -279 -48 -23 -70 -27 -142 -27 -72 1 -95 5 -147 29
-74 34 -154 113 -185 183 -26 59 -35 173 -18 242 15 64 75 157 125 195 100 77
245 98 362 54z"/>
<path d="M8730 14485 c-224 -55 -377 -226 -409 -456 -33 -238 84 -455 300
-557 l78 -37 1 -157 0 -157 38 -43 c21 -24 201 -205 401 -403 199 -198 419
-417 489 -487 69 -70 140 -134 158 -143 128 -61 268 82 196 200 -10 17 -238
246 -505 509 l-487 480 0 103 c0 81 3 103 14 103 7 0 50 18 94 40 88 44 178
129 225 215 86 153 90 349 10 515 -35 73 -160 198 -233 233 -116 56 -251 71
-370 42z m223 -247 c57 -17 139 -96 167 -160 19 -44 22 -65 18 -133 -5 -92
-27 -144 -86 -203 -76 -76 -189 -101 -293 -67 -79 27 -162 112 -185 190 -43
151 20 295 161 365 47 23 154 27 218 8z"/>
<path d="M13220 14015 c-106 -24 -199 -76 -268 -150 -67 -71 -123 -176 -141
-263 -23 -109 -6 -253 39 -342 11 -22 20 -43 20 -48 0 -5 -339 -344 -752 -753
-414 -408 -934 -922 -1155 -1142 l-401 -400 -44 18 c-29 12 -80 20 -155 23
l-113 5 -1162 1164 c-640 641 -1176 1171 -1192 1180 -45 23 -90 9 -147 -46
-49 -47 -50 -50 -47 -100 l3 -52 1135 -1134 1135 -1134 -52 -53 c-114 -118
-165 -246 -166 -423 -1 -99 1 -116 27 -175 15 -36 30 -72 32 -80 3 -10 -218
-235 -648 -660 -1278 -1261 -1647 -1620 -1653 -1611 -14 24 -141 52 -235 52
-247 1 -440 -146 -518 -395 -25 -80 -22 -235 6 -318 26 -76 83 -168 133 -215
100 -94 232 -143 383 -143 114 0 199 24 286 80 70 45 158 144 192 216 31 67
58 176 58 239 0 78 -33 195 -77 276 -4 6 303 312 1016 1014 162 160 340 335
395 390 230 229 869 850 875 849 3 0 35 -14 69 -31 114 -56 261 -66 390 -26
l52 17 1136 -1138 c624 -625 1147 -1142 1162 -1147 15 -6 42 -8 60 -4 68 13
150 117 137 175 -5 21 -314 337 -1135 1159 l-1129 1130 34 51 c58 87 77 151
82 280 4 87 1 130 -12 179 -15 58 -56 150 -86 192 -10 13 -2 24 42 65 29 27
240 234 469 460 228 226 550 543 715 705 165 161 474 466 687 678 l386 384 50
-21 c184 -79 412 -36 565 106 113 106 169 235 168 387 0 146 -43 263 -131 366
-114 133 -340 205 -520 164z m239 -255 c63 -32 108 -77 138 -138 39 -80 40
-184 1 -257 -80 -151 -241 -207 -386 -135 -66 33 -109 76 -144 143 -34 64 -32
184 4 252 39 75 98 124 180 151 56 18 155 11 207 -16z m-3005 -3094 c139 -68
207 -232 160 -382 -26 -85 -117 -176 -199 -199 -147 -43 -298 24 -365 161 -21
41 -25 64 -25 139 0 78 4 97 27 141 35 66 117 140 177 159 66 21 158 14 225
-19z m-3046 -3057 c264 -131 186 -526 -108 -546 -263 -19 -411 299 -228 486
94 96 220 118 336 60z"/>
<path d="M6506 12344 c-277 -67 -450 -369 -381 -663 42 -177 194 -327 380
-376 235 -61 505 58 610 267 19 39 35 77 35 84 0 12 93 14 558 14 l557 0 440
-441 c242 -242 452 -447 467 -455 37 -19 114 -18 149 3 31 19 69 85 69 121 0
13 -6 37 -14 55 -8 18 -226 243 -503 519 l-488 488 -614 2 -613 3 -22 61 c-12
33 -32 77 -44 96 -32 52 -145 154 -202 183 -104 53 -261 69 -384 39z m259
-258 c95 -44 165 -154 165 -261 0 -79 -29 -145 -91 -207 -67 -67 -138 -94
-223 -84 -63 7 -148 48 -181 88 -55 65 -70 107 -70 198 0 73 4 92 27 135 55
104 138 154 253 155 53 0 82 -6 120 -24z"/>
<path d="M14065 12050 c-197 -42 -379 -205 -444 -398 l-20 -57 -709 -1 -710
-1 -33 -27 c-74 -60 -682 -672 -690 -694 -38 -98 28 -192 133 -192 27 0 59 5
71 11 11 7 158 146 326 310 l306 299 656 0 656 0 13 -44 c20 -73 88 -184 150
-244 111 -108 245 -169 395 -179 291 -18 577 193 646 477 18 75 16 221 -4 300
-50 193 -200 355 -389 421 -50 18 -89 23 -188 25 -69 2 -143 -1 -165 -6z m230
-234 c143 -38 236 -126 271 -258 69 -260 -126 -504 -386 -486 -208 15 -366
206 -346 416 20 225 247 386 461 328z"/>
<path d="M5138 11100 c-222 -38 -433 -191 -529 -385 -62 -125 -83 -226 -76
-365 9 -184 54 -309 159 -438 84 -103 255 -205 395 -236 91 -20 230 -20 325
-1 98 20 257 100 331 165 103 93 196 247 214 356 l8 49 875 1 c481 1 1252 2
1714 3 l838 1 39 38 c65 66 65 139 -1 204 l-38 38 -1709 0 -1708 0 -23 74
c-61 197 -219 370 -409 450 -112 47 -283 66 -405 46z m192 -280 c226 -36 388
-252 367 -488 -5 -48 -17 -88 -43 -142 -118 -238 -383 -317 -626 -188 -171 91
-258 315 -198 510 53 171 232 310 410 317 14 0 54 -4 90 -9z"/>
<path d="M15368 11100 c-267 -45 -501 -256 -570 -513 -11 -42 -15 -46 -47 -49
-20 -3 -828 -6 -1796 -7 -1729 -2 -1760 -2 -1791 -22 -83 -51 -84 -182 -3
-240 l34 -24 1794 -5 1793 -5 22 -75 c92 -321 433 -542 771 -500 330 41 571
254 640 564 27 121 17 295 -23 402 -71 193 -193 327 -377 415 -123 59 -304 83
-447 59z m202 -281 c228 -37 399 -255 376 -480 -32 -311 -353 -485 -643 -350
-115 54 -197 155 -237 290 -65 223 91 478 329 537 64 16 95 16 175 3z"/>
<path d="M11762 10013 c-36 -7 -100 -77 -107 -117 -14 -69 -2 -86 178 -263 95
-92 330 -325 524 -517 193 -192 357 -352 365 -357 7 -5 70 -9 139 -9 l126 0
16 -82 c24 -122 75 -218 162 -303 187 -185 440 -224 682 -105 278 137 391 480
251 760 -62 123 -205 242 -345 286 -76 24 -216 29 -301 10 -145 -30 -287 -122
-363 -233 l-30 -43 -105 0 -106 0 -466 460 c-257 253 -483 471 -502 485 -37
26 -80 36 -118 28z m1962 -957 c69 -34 148 -119 170 -182 26 -78 21 -178 -13
-249 -91 -193 -328 -253 -505 -128 -186 132 -178 416 15 539 96 61 233 69 333
20z"/>
<path d="M8771 9978 c-23 -18 -200 -189 -395 -380 l-353 -348 -347 0 c-329 0
-346 1 -346 18 0 33 -60 139 -108 193 -102 114 -231 170 -392 171 -273 2 -480
-165 -536 -432 -27 -127 -2 -261 71 -386 64 -109 191 -197 333 -230 88 -21
225 -14 307 15 64 23 173 92 217 138 37 39 96 140 109 185 l10 38 402 0 402 0
415 405 c228 223 423 420 433 437 22 42 21 73 -3 125 -39 87 -143 111 -219 51z
m-1851 -603 c110 -39 193 -158 193 -278 0 -105 -56 -198 -150 -254 -60 -35
-168 -43 -241 -19 -64 22 -130 79 -162 142 -36 70 -36 188 0 258 31 60 106
130 163 149 55 20 144 21 197 2z"/>
<path d="M10246 9510 c-41 -13 -84 -58 -96 -99 -6 -23 -10 -639 -10 -1705 0
-918 -2 -1671 -4 -1673 -2 -3 -30 -11 -63 -20 -172 -44 -333 -170 -426 -333
-93 -162 -118 -427 -58 -602 81 -235 281 -422 517 -482 90 -23 270 -21 368 4
218 55 405 223 493 440 70 173 70 367 -1 552 -34 93 -70 150 -135 221 -96 103
-210 166 -388 213 -10 3 -13 348 -13 1686 0 1655 0 1682 -20 1723 -30 61 -101
94 -164 75z m143 -3755 c292 -77 429 -379 296 -652 -111 -227 -404 -311 -627
-180 -62 36 -155 138 -184 202 -157 343 156 726 515 630z"/>
<path d="M10705 8788 c-63 -22 -95 -71 -95 -144 0 -29 7 -59 19 -78 11 -17
229 -239 485 -494 l466 -463 0 -100 0 -99 -59 -30 c-127 -63 -228 -192 -266
-336 -19 -75 -19 -213 0 -289 56 -213 251 -375 474 -392 100 -7 178 9 276 55
137 66 231 170 281 309 32 91 34 240 4 334 -53 171 -180 301 -341 350 l-68 21
-3 150 -3 151 -525 518 c-289 285 -539 525 -557 534 -35 17 -46 18 -88 3z
m1204 -1624 c100 -54 154 -146 155 -264 1 -89 -23 -146 -85 -209 -67 -67 -115
-84 -218 -79 -126 6 -191 47 -245 153 -35 70 -42 137 -22 213 37 147 143 226
292 219 54 -3 82 -10 123 -33z"/>
</g>
</svg>
